<svg width="372" height="27" viewBox="0 0 372 27" fill="none" xmlns="http://www.w3.org/2000/svg">
<path d="M0.910782 0.40625H6.2018V8.26367C6.2018 9.38867 6.37172 10.2676 6.71156 10.9004C7.06313 11.5332 7.59047 11.9785 8.29359 12.2363C9.00844 12.4824 9.8932 12.6055 10.9479 12.6055C11.3463 12.6055 11.8151 12.5879 12.3541 12.5527C12.9049 12.5176 13.4674 12.4648 14.0416 12.3945C14.6159 12.3125 15.1666 12.2246 15.694 12.1309C16.2213 12.0254 16.6608 11.9082 17.0123 11.7793V15.8926C16.6608 16.0098 16.2213 16.1211 15.694 16.2266C15.1666 16.332 14.6159 16.4258 14.0416 16.5078C13.4674 16.5781 12.9049 16.6309 12.3541 16.666C11.8151 16.7012 11.3463 16.7188 10.9479 16.7188C8.90883 16.7188 7.1393 16.4258 5.6393 15.8398C4.1393 15.2539 2.97328 14.3398 2.14125 13.0977C1.32094 11.8438 0.910782 10.2324 0.910782 8.26367V0.40625ZM15.9049 0.40625H21.1784V26H15.9049V0.40625ZM35.2662 26.3516C33.7896 26.3516 32.4654 26.1172 31.2935 25.6484C30.1216 25.168 29.1255 24.5059 28.3052 23.6621C27.4966 22.8184 26.8755 21.8398 26.442 20.7266C26.0084 19.6016 25.7916 18.4062 25.7916 17.1406V16.4375C25.7916 14.9961 25.9966 13.6777 26.4068 12.4824C26.817 11.2871 27.4029 10.25 28.1646 9.37109C28.938 8.49219 29.8755 7.81836 30.9771 7.34961C32.0787 6.86914 33.3209 6.62891 34.7037 6.62891C36.0513 6.62891 37.2466 6.85156 38.2896 7.29688C39.3326 7.74219 40.2056 8.375 40.9088 9.19531C41.6236 10.0156 42.1627 11 42.5259 12.1484C42.8892 13.2852 43.0709 14.5508 43.0709 15.9453V18.0547H27.9537V14.6797H38.0963V14.293C38.0963 13.5898 37.9673 12.9629 37.7095 12.4121C37.4634 11.8496 37.0884 11.4043 36.5845 11.0762C36.0806 10.748 35.4361 10.584 34.6509 10.584C33.983 10.584 33.4088 10.7305 32.9283 11.0234C32.4478 11.3164 32.0552 11.7266 31.7505 12.2539C31.4576 12.7812 31.2349 13.4023 31.0826 14.1172C30.942 14.8203 30.8716 15.5938 30.8716 16.4375V17.1406C30.8716 17.9023 30.9771 18.6055 31.188 19.25C31.4107 19.8945 31.7213 20.4512 32.1197 20.9199C32.5298 21.3887 33.022 21.752 33.5963 22.0098C34.1822 22.2676 34.8443 22.3965 35.5826 22.3965C36.4966 22.3965 37.3463 22.2207 38.1314 21.8691C38.9283 21.5059 39.6138 20.9609 40.188 20.2344L42.649 22.9062C42.2505 23.4805 41.7056 24.0312 41.0142 24.5586C40.3345 25.0859 39.5142 25.5195 38.5533 25.8594C37.5923 26.1875 36.4966 26.3516 35.2662 26.3516ZM58.6001 20.1816L63.5923 6.98047H67.7231L60.3052 26H56.895L49.5122 6.98047H53.643L58.6001 20.1816ZM52.4302 6.98047V26H47.3677V6.98047H52.4302ZM64.893 26V6.98047H69.9555V26H64.893ZM97.0765 20.1816L102.069 6.98047H106.2L98.7816 26H95.3714L87.9886 6.98047H92.1195L97.0765 20.1816ZM90.9066 6.98047V26H85.8441V6.98047H90.9066ZM103.369 26V6.98047H108.432V26H103.369ZM117.44 12.623H122.959C124.694 12.623 126.17 12.9102 127.389 13.4844C128.619 14.0469 129.557 14.832 130.201 15.8398C130.858 16.8477 131.186 18.0137 131.186 19.3379C131.186 20.2988 130.998 21.1895 130.623 22.0098C130.26 22.8184 129.727 23.5215 129.024 24.1191C128.321 24.7168 127.459 25.1797 126.44 25.5078C125.42 25.8359 124.26 26 122.959 26H114.276V6.98047H119.356V22.0625H122.959C123.721 22.0625 124.33 21.9395 124.787 21.6934C125.256 21.4355 125.596 21.1016 125.807 20.6914C126.03 20.2812 126.141 19.8359 126.141 19.3555C126.141 18.8516 126.03 18.3945 125.807 17.9844C125.596 17.5625 125.256 17.2227 124.787 16.9648C124.33 16.707 123.721 16.5781 122.959 16.5781H117.44V12.623ZM139.307 6.98047V26H134.244V6.98047H139.307ZM163.352 16.9297H159.59V14.6621H162.279C162.912 14.6621 163.416 14.5742 163.791 14.3984C164.178 14.2227 164.453 13.9766 164.617 13.6602C164.793 13.332 164.881 12.9629 164.881 12.5527C164.881 12.1895 164.805 11.8438 164.652 11.5156C164.512 11.1758 164.254 10.9004 163.879 10.6895C163.516 10.4668 163 10.3555 162.332 10.3555C161.781 10.3555 161.289 10.4375 160.856 10.6016C160.434 10.7656 160.1 11.0059 159.854 11.3223C159.619 11.627 159.502 11.9961 159.502 12.4297H154.422C154.422 11.2227 154.768 10.1914 155.459 9.33594C156.15 8.46875 157.076 7.80664 158.236 7.34961C159.397 6.88086 160.668 6.64648 162.051 6.64648C163.258 6.64648 164.348 6.76953 165.32 7.01562C166.293 7.25 167.125 7.60156 167.816 8.07031C168.508 8.53906 169.035 9.11914 169.399 9.81055C169.774 10.4902 169.961 11.2812 169.961 12.1836C169.961 12.8281 169.809 13.4375 169.504 14.0117C169.199 14.5859 168.76 15.0957 168.186 15.541C167.611 15.9746 166.914 16.3145 166.094 16.5605C165.285 16.8066 164.371 16.9297 163.352 16.9297ZM159.59 15.6641H163.352C164.488 15.6641 165.484 15.7754 166.34 15.998C167.207 16.209 167.934 16.5254 168.52 16.9473C169.106 17.3691 169.545 17.8906 169.838 18.5117C170.143 19.1211 170.295 19.8242 170.295 20.6211C170.295 21.5234 170.096 22.332 169.697 23.0469C169.299 23.75 168.731 24.3477 167.992 24.8398C167.254 25.332 166.381 25.707 165.373 25.9648C164.365 26.2227 163.258 26.3516 162.051 26.3516C160.762 26.3516 159.508 26.1406 158.289 25.7188C157.07 25.2969 156.068 24.6465 155.283 23.7676C154.51 22.8887 154.123 21.7578 154.123 20.375H159.203C159.203 20.7734 159.32 21.1484 159.555 21.5C159.789 21.8516 160.141 22.1328 160.609 22.3438C161.078 22.543 161.658 22.6426 162.35 22.6426C163.041 22.6426 163.598 22.5312 164.02 22.3086C164.441 22.0859 164.746 21.793 164.934 21.4297C165.133 21.0547 165.232 20.668 165.232 20.2695C165.232 19.707 165.121 19.25 164.899 18.8984C164.688 18.5469 164.359 18.2891 163.914 18.125C163.481 17.9609 162.936 17.8789 162.279 17.8789H159.59V15.6641ZM184.752 21.7109V13.2383C184.752 12.6289 184.652 12.1074 184.453 11.6738C184.254 11.2285 183.943 10.8828 183.521 10.6367C183.111 10.3906 182.578 10.2676 181.922 10.2676C181.359 10.2676 180.873 10.3672 180.463 10.5664C180.053 10.7539 179.736 11.0293 179.514 11.3926C179.291 11.7441 179.18 12.1602 179.18 12.6406H174.117C174.117 11.832 174.305 11.0645 174.68 10.3379C175.055 9.61133 175.6 8.97266 176.314 8.42188C177.029 7.85938 177.879 7.41992 178.863 7.10352C179.859 6.78711 180.973 6.62891 182.203 6.62891C183.68 6.62891 184.992 6.875 186.141 7.36719C187.289 7.85938 188.191 8.59766 188.848 9.58203C189.516 10.5664 189.85 11.7969 189.85 13.2734V21.4121C189.85 22.4551 189.914 23.3105 190.043 23.9785C190.172 24.6348 190.359 25.209 190.605 25.7012V26H185.49C185.244 25.4844 185.057 24.8398 184.928 24.0664C184.811 23.2812 184.752 22.4961 184.752 21.7109ZM185.42 14.416L185.455 17.2812H182.625C181.957 17.2812 181.377 17.3574 180.885 17.5098C180.393 17.6621 179.988 17.8789 179.672 18.1602C179.355 18.4297 179.121 18.7461 178.969 19.1094C178.828 19.4727 178.758 19.8711 178.758 20.3047C178.758 20.7383 178.857 21.1309 179.057 21.4824C179.256 21.8223 179.543 22.0918 179.918 22.291C180.293 22.4785 180.732 22.5723 181.236 22.5723C181.998 22.5723 182.66 22.4199 183.223 22.1152C183.785 21.8105 184.219 21.4355 184.523 20.9902C184.84 20.5449 185.004 20.123 185.016 19.7246L186.352 21.8691C186.164 22.3496 185.906 22.8477 185.578 23.3633C185.262 23.8789 184.857 24.3652 184.365 24.8223C183.873 25.2676 183.281 25.6367 182.59 25.9297C181.898 26.2109 181.078 26.3516 180.129 26.3516C178.922 26.3516 177.826 26.1113 176.842 25.6309C175.869 25.1387 175.096 24.4648 174.521 23.6094C173.959 22.7422 173.678 21.7578 173.678 20.6562C173.678 19.6602 173.865 18.7754 174.24 18.002C174.615 17.2285 175.166 16.5781 175.893 16.0508C176.631 15.5117 177.551 15.1074 178.652 14.8379C179.754 14.5566 181.031 14.416 182.484 14.416H185.42ZM207.857 14.6621V18.5996H198.189V14.6621H207.857ZM199.877 6.98047V26H194.814V6.98047H199.877ZM211.285 6.98047V26H206.205V6.98047H211.285ZM221.348 18.9336L227.728 6.98047H232.791V26H227.728V14.0293L221.348 26H216.285V6.98047H221.348V18.9336ZM249.34 20.1816L254.332 6.98047H258.463L251.045 26H247.635L240.252 6.98047H244.383L249.34 20.1816ZM243.17 6.98047V26H238.107V6.98047H243.17ZM255.633 26V6.98047H260.695V26H255.633ZM276.47 21.7109V13.2383C276.47 12.6289 276.371 12.1074 276.172 11.6738C275.972 11.2285 275.662 10.8828 275.24 10.6367C274.83 10.3906 274.297 10.2676 273.64 10.2676C273.078 10.2676 272.591 10.3672 272.181 10.5664C271.771 10.7539 271.455 11.0293 271.232 11.3926C271.009 11.7441 270.898 12.1602 270.898 12.6406H265.836C265.836 11.832 266.023 11.0645 266.398 10.3379C266.773 9.61133 267.318 8.97266 268.033 8.42188C268.748 7.85938 269.597 7.41992 270.582 7.10352C271.578 6.78711 272.691 6.62891 273.922 6.62891C275.398 6.62891 276.711 6.875 277.859 7.36719C279.008 7.85938 279.91 8.59766 280.566 9.58203C281.234 10.5664 281.568 11.7969 281.568 13.2734V21.4121C281.568 22.4551 281.633 23.3105 281.761 23.9785C281.89 24.6348 282.078 25.209 282.324 25.7012V26H277.209C276.963 25.4844 276.775 24.8398 276.646 24.0664C276.529 23.2812 276.47 22.4961 276.47 21.7109ZM277.138 14.416L277.174 17.2812H274.343C273.675 17.2812 273.095 17.3574 272.603 17.5098C272.111 17.6621 271.707 17.8789 271.39 18.1602C271.074 18.4297 270.84 18.7461 270.687 19.1094C270.547 19.4727 270.476 19.8711 270.476 20.3047C270.476 20.7383 270.576 21.1309 270.775 21.4824C270.974 21.8223 271.261 22.0918 271.636 22.291C272.011 22.4785 272.451 22.5723 272.955 22.5723C273.716 22.5723 274.379 22.4199 274.941 22.1152C275.504 21.8105 275.937 21.4355 276.242 20.9902C276.558 20.5449 276.722 20.123 276.734 19.7246L278.07 21.8691C277.883 22.3496 277.625 22.8477 277.297 23.3633C276.98 23.8789 276.576 24.3652 276.084 24.8223C275.591 25.2676 275 25.6367 274.308 25.9297C273.617 26.2109 272.797 26.3516 271.847 26.3516C270.64 26.3516 269.545 26.1113 268.56 25.6309C267.588 25.1387 266.814 24.4648 266.24 23.6094C265.677 22.7422 265.396 21.7578 265.396 20.6562C265.396 19.6602 265.584 18.7754 265.959 18.002C266.334 17.2285 266.884 16.5781 267.611 16.0508C268.349 15.5117 269.269 15.1074 270.371 14.8379C271.472 14.5566 272.75 14.416 274.203 14.416H277.138ZM295.304 26.3516C293.828 26.3516 292.504 26.1172 291.332 25.6484C290.16 25.168 289.164 24.5059 288.343 23.6621C287.535 22.8184 286.914 21.8398 286.48 20.7266C286.047 19.6016 285.83 18.4062 285.83 17.1406V16.4375C285.83 14.9961 286.035 13.6777 286.445 12.4824C286.855 11.2871 287.441 10.25 288.203 9.37109C288.976 8.49219 289.914 7.81836 291.015 7.34961C292.117 6.86914 293.359 6.62891 294.742 6.62891C296.089 6.62891 297.285 6.85156 298.328 7.29688C299.371 7.74219 300.244 8.375 300.947 9.19531C301.662 10.0156 302.201 11 302.564 12.1484C302.927 13.2852 303.109 14.5508 303.109 15.9453V18.0547H287.992V14.6797H298.134V14.293C298.134 13.5898 298.005 12.9629 297.748 12.4121C297.502 11.8496 297.127 11.4043 296.623 11.0762C296.119 10.748 295.474 10.584 294.689 10.584C294.021 10.584 293.447 10.7305 292.966 11.0234C292.486 11.3164 292.093 11.7266 291.789 12.2539C291.496 12.7812 291.273 13.4023 291.121 14.1172C290.98 14.8203 290.91 15.5938 290.91 16.4375V17.1406C290.91 17.9023 291.015 18.6055 291.226 19.25C291.449 19.8945 291.759 20.4512 292.158 20.9199C292.568 21.3887 293.06 21.752 293.634 22.0098C294.22 22.2676 294.882 22.3965 295.621 22.3965C296.535 22.3965 297.384 22.2207 298.17 21.8691C298.966 21.5059 299.652 20.9609 300.226 20.2344L302.687 22.9062C302.289 23.4805 301.744 24.0312 301.052 24.5586C300.373 25.0859 299.552 25.5195 298.591 25.8594C297.63 26.1875 296.535 26.3516 295.304 26.3516ZM318.638 20.1816L323.63 6.98047H327.761L320.343 26H316.933L309.55 6.98047H313.681L318.638 20.1816ZM312.468 6.98047V26H307.406V6.98047H312.468ZM324.931 26V6.98047H329.994V26H324.931ZM343.361 22.3965C343.982 22.3965 344.533 22.2793 345.013 22.0449C345.494 21.7988 345.869 21.459 346.138 21.0254C346.419 20.5801 346.566 20.0586 346.578 19.4609H351.341C351.33 20.7969 350.972 21.9863 350.269 23.0293C349.566 24.0605 348.622 24.875 347.439 25.4727C346.255 26.0586 344.931 26.3516 343.466 26.3516C341.99 26.3516 340.701 26.1055 339.599 25.6133C338.509 25.1211 337.601 24.4414 336.874 23.5742C336.148 22.6953 335.603 21.6758 335.24 20.5156C334.876 19.3438 334.695 18.0898 334.695 16.7539V16.2441C334.695 14.8965 334.876 13.6426 335.24 12.4824C335.603 11.3105 336.148 10.291 336.874 9.42383C337.601 8.54492 338.509 7.85938 339.599 7.36719C340.689 6.875 341.966 6.62891 343.431 6.62891C344.99 6.62891 346.355 6.92773 347.527 7.52539C348.71 8.12305 349.636 8.97852 350.304 10.0918C350.984 11.1934 351.33 12.5 351.341 14.0117H346.578C346.566 13.3789 346.431 12.8047 346.173 12.2891C345.927 11.7734 345.564 11.3633 345.083 11.0586C344.615 10.7422 344.035 10.584 343.343 10.584C342.605 10.584 342.001 10.7422 341.533 11.0586C341.064 11.3633 340.701 11.7852 340.443 12.3242C340.185 12.8516 340.003 13.4551 339.898 14.1348C339.804 14.8027 339.757 15.5059 339.757 16.2441V16.7539C339.757 17.4922 339.804 18.2012 339.898 18.8809C339.992 19.5605 340.167 20.1641 340.425 20.6914C340.695 21.2188 341.064 21.6348 341.533 21.9395C342.001 22.2441 342.611 22.3965 343.361 22.3965ZM359.453 16.5078H364.585L359.294 26H354.179L359.453 16.5078ZM362.863 6.98047H371.212V26H366.15V10.9004H362.863C362.171 10.9004 361.597 11.0293 361.14 11.2871C360.683 11.5332 360.343 11.8555 360.12 12.2539C359.91 12.6406 359.804 13.0391 359.804 13.4492C359.804 13.8477 359.91 14.2344 360.12 14.6094C360.331 14.9844 360.66 15.2949 361.105 15.541C361.55 15.7871 362.107 15.9102 362.775 15.9102H368.031V19.3555H362.775C361.521 19.3555 360.396 19.2031 359.4 18.8984C358.415 18.5938 357.572 18.1719 356.869 17.6328C356.177 17.082 355.644 16.4434 355.269 15.7168C354.906 14.9785 354.724 14.1699 354.724 13.291C354.724 12.377 354.911 11.5391 355.286 10.7773C355.661 10.0156 356.201 9.34766 356.904 8.77344C357.607 8.19922 358.456 7.75977 359.453 7.45508C360.46 7.13867 361.597 6.98047 362.863 6.98047Z" fill="#212121"/>
</svg>
